<svg width="300" height="300" viewBox="0 0 300 300" fill="none" xmlns="http://www.w3.org/2000/svg">
<g clip-path="url(#clip0_1630_47)" filter="url(#filter0_d_1630_47)">
<path d="M203.125 50H96.875C70.9867 50 50 70.9867 50 96.875V203.125C50 229.013 70.9867 250 96.875 250H203.125C229.013 250 250 229.013 250 203.125V96.875C250 70.9867 229.013 50 203.125 50Z" fill="url(#paint0_radial_1630_47)"/>
<path d="M203.125 50H96.875C70.9867 50 50 70.9867 50 96.875V203.125C50 229.013 70.9867 250 96.875 250H203.125C229.013 250 250 229.013 250 203.125V96.875C250 70.9867 229.013 50 203.125 50Z" fill="url(#paint1_radial_1630_47)"/>
<path d="M150.007 71.875C128.79 71.875 126.127 71.968 117.794 72.3469C109.477 72.7281 103.799 74.0445 98.832 75.9766C93.693 77.9719 89.3344 80.6414 84.9922 84.9852C80.6461 89.3281 77.9766 93.6867 75.975 98.8234C74.0375 103.792 72.7195 109.472 72.3453 117.785C71.9727 126.119 71.875 128.783 71.875 150.001C71.875 171.219 71.9688 173.873 72.3469 182.206C72.7297 190.523 74.0461 196.201 75.9766 201.168C77.9734 206.307 80.643 210.666 84.9867 215.008C89.3281 219.354 93.6867 222.03 98.8219 224.025C103.793 225.957 109.471 227.273 117.787 227.655C126.12 228.034 128.781 228.127 149.998 228.127C171.217 228.127 173.872 228.034 182.205 227.655C190.522 227.273 196.205 225.957 201.177 224.025C206.313 222.03 210.666 219.354 215.006 215.008C219.352 210.666 222.021 206.307 224.023 201.17C225.944 196.201 227.262 190.522 227.653 182.208C228.027 173.875 228.125 171.219 228.125 150.001C228.125 128.783 228.027 126.12 227.653 117.787C227.262 109.47 225.944 103.793 224.023 98.8258C222.021 93.6867 219.352 89.3281 215.006 84.9852C210.661 80.6398 206.315 77.9703 201.172 75.9773C196.191 74.0445 190.511 72.7273 182.194 72.3469C173.86 71.968 171.207 71.875 149.983 71.875H150.007ZM142.998 85.9539C145.079 85.9508 147.4 85.9539 150.007 85.9539C170.867 85.9539 173.339 86.0289 181.577 86.4031C189.194 86.7516 193.328 88.0242 196.082 89.0938C199.728 90.5094 202.327 92.2023 205.06 94.9375C207.795 97.6719 209.487 100.276 210.906 103.922C211.976 106.672 213.25 110.806 213.597 118.423C213.971 126.659 214.052 129.133 214.052 149.983C214.052 170.833 213.971 173.307 213.597 181.542C213.248 189.159 211.976 193.294 210.906 196.045C209.491 199.691 207.795 202.287 205.06 205.02C202.326 207.754 199.73 209.446 196.082 210.863C193.331 211.937 189.194 213.206 181.577 213.555C173.341 213.929 170.867 214.01 150.007 214.01C129.146 214.01 126.673 213.929 118.438 213.555C110.821 213.203 106.687 211.93 103.93 210.861C100.285 209.445 97.6805 207.752 94.9461 205.018C92.2117 202.284 90.5195 199.686 89.1 196.038C88.0305 193.288 86.7563 189.153 86.4094 181.536C86.0352 173.3 85.9602 170.827 85.9602 149.963C85.9602 129.101 86.0352 126.64 86.4094 118.404C86.7578 110.787 88.0305 106.652 89.1 103.898C90.5164 100.252 92.2117 97.6484 94.9469 94.9141C97.6813 92.1797 100.285 90.4867 103.931 89.068C106.685 87.9937 110.821 86.7242 118.438 86.3742C125.645 86.0484 128.438 85.9508 142.998 85.9344V85.9539ZM191.71 98.9258C186.534 98.9258 182.335 103.121 182.335 108.298C182.335 113.473 186.534 117.673 191.71 117.673C196.886 117.673 201.085 113.473 201.085 108.298C201.085 103.122 196.886 98.9227 191.71 98.9227V98.9258ZM150.007 109.88C127.851 109.88 109.887 127.844 109.887 150.001C109.887 172.158 127.851 190.113 150.007 190.113C172.164 190.113 190.122 172.158 190.122 150.001C190.122 127.845 172.163 109.88 150.005 109.88H150.007ZM150.007 123.959C164.389 123.959 176.049 135.617 176.049 150.001C176.049 164.383 164.389 176.043 150.007 176.043C135.624 176.043 123.966 164.383 123.966 150.001C123.966 135.617 135.624 123.959 150.007 123.959Z" fill="white"/>
</g>
<defs>
<filter id="filter0_d_1630_47" x="46" y="50" width="208" height="208" filterUnits="userSpaceOnUse" color-interpolation-filters="sRGB">
<feFlood flood-opacity="0" result="BackgroundImageFix"/>
<feColorMatrix in="SourceAlpha" type="matrix" values="0 0 0 0 0 0 0 0 0 0 0 0 0 0 0 0 0 0 127 0" result="hardAlpha"/>
<feOffset dy="4"/>
<feGaussianBlur stdDeviation="2"/>
<feComposite in2="hardAlpha" operator="out"/>
<feColorMatrix type="matrix" values="0 0 0 0 0 0 0 0 0 0 0 0 0 0 0 0 0 0 0.25 0"/>
<feBlend mode="normal" in2="BackgroundImageFix" result="effect1_dropShadow_1630_47"/>
<feBlend mode="normal" in="SourceGraphic" in2="effect1_dropShadow_1630_47" result="shape"/>
</filter>
<radialGradient id="paint0_radial_1630_47" cx="0" cy="0" r="1" gradientUnits="userSpaceOnUse" gradientTransform="translate(103.125 265.404) rotate(-90) scale(198.215 184.355)">
<stop stop-color="#FFDD55"/>
<stop offset="0.1" stop-color="#FFDD55"/>
<stop offset="0.5" stop-color="#FF543E"/>
<stop offset="1" stop-color="#C837AB"/>
</radialGradient>
<radialGradient id="paint1_radial_1630_47" cx="0" cy="0" r="1" gradientUnits="userSpaceOnUse" gradientTransform="translate(16.4992 64.407) rotate(78.681) scale(88.6031 365.225)">
<stop stop-color="#3771C8"/>
<stop offset="0.128" stop-color="#3771C8"/>
<stop offset="1" stop-color="#6600FF" stop-opacity="0"/>
</radialGradient>
<clipPath id="clip0_1630_47">
<rect width="200" height="200" fill="white" transform="translate(50 50)"/>
</clipPath>
</defs>
</svg>
