<svg width="141" height="74" viewBox="0 0 141 74" fill="none" xmlns="http://www.w3.org/2000/svg">
<rect width="140.72" height="73.75" fill="#6A2875"/>
<path d="M9.80326 0C9.80326 0 0 0 0 9.84244V63.0576C0 63.0576 0 73.7477 10.6476 73.7477H130.913C130.913 73.7477 140.717 73.7477 140.717 63.9052V33.7657C140.717 33.7657 140.717 0 107.085 0H9.80326Z" fill="#6A2875"/>
<path d="M17.5427 26.5607C20.9199 26.5607 21.5296 26.7019 21.8111 27.4554C21.9987 28.0676 22.1394 29.1979 22.2801 30.2339C24.4847 27.6909 28.0495 25.9014 32.2241 25.9014C36.3987 25.9014 39.729 27.2671 41.7928 29.6217C44.0443 32.1647 45.0293 35.5083 45.0293 40.7357V61.9746C45.0293 62.7281 44.6072 63.0107 40.5733 63.0107H40.2449C35.7889 63.0107 35.6482 62.7281 35.6482 61.9746V43.3258C35.6482 38.5694 35.3668 37.1095 34.2879 35.8851C33.3967 34.849 31.6612 34.2839 29.6912 34.2839C28.0964 34.2839 26.314 34.6136 25.0945 35.3671C23.6404 36.2618 23.312 37.3921 23.1713 39.0403C23.0306 40.6415 23.0306 43.1845 23.0306 45.8217V61.9746C23.0306 62.7281 22.6085 63.0107 18.5746 63.0107H18.2462C13.7902 63.0107 13.6495 62.7281 13.6495 61.9746V42.949C13.6495 37.5804 13.4619 31.5525 13.1804 27.8322C13.1335 26.8903 13.3681 26.6078 17.3081 26.6078H17.5427V26.5607Z" fill="white"/>
<path d="M71.7188 37.1564C69.9833 35.0843 67.9194 34.0012 65.5273 34.0012C60.5084 34.0012 58.1162 38.0041 58.1162 45.3035C58.1162 49.3535 59.0543 51.9907 60.4615 53.5919C61.681 55.0517 63.6979 55.5698 65.6211 55.5698C67.5442 55.5698 69.7488 54.8634 70.7807 53.7802C71.5312 52.9325 71.7188 51.8494 71.7188 50.0599V37.1564ZM76.6908 10.5488C80.7247 10.5488 81.1468 10.8314 81.1468 11.5849V53.7331C81.1468 55.2401 81.7566 55.6639 83.1168 55.6639C83.9611 55.6639 84.008 55.9936 84.008 58.4895V59.243C84.008 61.6448 83.8673 62.2099 83.3983 62.3982C82.1787 62.8692 80.3025 63.2459 78.4732 63.2459C75.4243 63.2459 73.4074 61.8802 72.4693 59.8081C70.124 62.3041 66.6999 63.6698 62.9006 63.6698C53.8947 63.6698 48.4067 56.6058 48.4067 45.3035C48.4067 33.1064 54.5045 25.8541 63.5103 25.8541C66.7468 25.8541 69.4204 26.9372 71.6719 28.9622V11.5849C71.6719 10.8314 71.8126 10.5488 76.2686 10.5488H76.6908Z" fill="white"/>
<path d="M101.175 55.193C102.348 53.1209 102.958 52.5087 103.708 53.0738C106.382 54.8633 109.618 56.0406 112.526 56.0406C116.185 56.0406 118.296 54.6749 118.296 52.7912C118.296 47.4226 100.706 50.7191 100.706 37.5331C100.706 30.2807 106.898 25.854 114.919 25.854C119.468 25.854 123.362 27.0784 126.27 29.2918C126.973 29.7627 126.833 30.3278 125.425 32.6825L124.816 33.6714C123.596 35.7906 123.08 36.1674 122.33 35.6494C120.125 34.2837 118.014 33.436 115.294 33.436C113.324 33.436 111.729 33.8598 110.838 34.6133C110.228 35.1784 109.9 35.7906 109.9 36.6383C109.9 41.8185 127.489 39.1342 127.489 51.5668C127.489 54.722 126.176 57.7831 123.971 59.9023C121.438 62.3982 117.639 63.7168 112.62 63.7168C107.32 63.7168 102.676 61.9744 99.815 59.5726C99.2522 59.1017 99.346 58.4895 100.425 56.4645L101.175 55.193Z" fill="white"/>
<path d="M92.6854 26.5605C96.7661 26.5605 97.1414 26.8431 97.1414 27.5966V61.9745C97.1414 62.728 96.7192 63.0105 92.6854 63.0105H92.3101C87.8541 63.0105 87.7134 62.728 87.7134 61.9745V27.5966C87.7134 26.8431 87.8541 26.5605 92.3101 26.5605H92.6854Z" fill="white"/>
<path d="M92.3101 22.6988C95.6404 22.6988 98.3609 19.9674 98.3609 16.6238C98.3609 13.2802 95.6404 10.5488 92.3101 10.5488C88.9798 10.5488 86.2593 13.2802 86.2593 16.6238C86.2593 19.9674 88.9798 22.6988 92.3101 22.6988Z" fill="#82C341"/>
</svg>
